<?xml version="1.0" standalone="no"?>
<!DOCTYPE svg PUBLIC "-//W3C//DTD SVG 20010904//EN"
 "http://www.w3.org/TR/2001/REC-SVG-20010904/DTD/svg10.dtd">
<svg version="1.0" xmlns="http://www.w3.org/2000/svg"
 width="100.000000pt" height="90.000000pt" viewBox="0 0 100.000000 90.000000"
 preserveAspectRatio="xMidYMid meet">

<g transform="translate(0.000000,90.000000) scale(0.100000,-0.100000)"
fill="#000000" stroke="none">
<path d="M405 866 c-121 -29 -219 -107 -274 -217 -17 -34 -31 -68 -31 -76 0
-30 21 -9 49 50 39 81 109 152 191 191 58 28 75 31 155 31 96 -1 148 -17 228
-72 49 -34 111 -121 132 -184 17 -51 35 -65 35 -26 0 42 -59 147 -110 197
-102 99 -241 139 -375 106z"/>
<path d="M471 712 c27 -54 17 -175 -18 -209 -27 -28 -54 -19 -77 25 -13 24
-15 25 -22 9 -4 -10 -4 -47 -1 -83 7 -70 -1 -79 -39 -43 l-22 21 -16 -30 c-21
-41 -20 -78 5 -132 32 -72 88 -120 139 -120 20 0 18 4 -14 42 -59 68 -62 152
-4 103 38 -32 48 -32 48 2 0 37 36 108 65 127 24 16 24 16 35 -27 19 -72 20
-75 37 -81 9 -4 26 0 38 8 13 8 25 12 29 9 12 -12 6 -94 -9 -130 -20 -48 -12
-53 25 -13 64 69 79 238 30 346 l-22 49 -15 -48 c-10 -36 -18 -47 -31 -45 -17
3 -21 17 -42 121 -14 69 -70 137 -112 137 l-25 0 18 -38z"/>
<path d="M126 523 l-99 -57 31 -24 31 -24 -38 -57 c-59 -88 -59 -89 -31 -70
14 9 57 33 95 54 39 21 72 40 74 42 3 2 -7 16 -22 31 l-27 28 45 67 c25 37 44
67 43 67 -2 -1 -48 -26 -102 -57z"/>
<path d="M897 522 l-99 -57 31 -23 30 -24 -45 -70 -46 -71 34 20 c18 11 60 35
93 53 33 18 62 35 64 37 3 2 -8 16 -22 31 l-27 28 38 55 c44 62 54 79 50 78
-2 0 -47 -26 -101 -57z"/>
<path d="M114 295 c-9 -23 45 -111 98 -161 58 -54 133 -91 217 -105 158 -28
338 59 415 201 31 57 26 81 -8 36 -11 -16 -35 -48 -51 -70 -69 -92 -209 -154
-325 -143 -128 12 -253 95 -306 202 -28 59 -32 63 -40 40z"/>
</g>
</svg>
