<?xml version="1.0" standalone="no"?>
<!DOCTYPE svg PUBLIC "-//W3C//DTD SVG 20010904//EN"
 "http://www.w3.org/TR/2001/REC-SVG-20010904/DTD/svg10.dtd">
<svg version="1.0" xmlns="http://www.w3.org/2000/svg"
 width="80.000000pt" height="90.000000pt" viewBox="0 0 80.000000 90.000000"
 preserveAspectRatio="xMidYMid meet">

<g transform="translate(0.000000,90.000000) scale(0.100000,-0.100000)"
fill="#000000" stroke="none">
<path d="M343 871 c36 -43 40 -63 35 -184 -4 -112 -21 -160 -63 -179 -39 -18
-72 4 -100 63 l-23 51 -12 -59 c-10 -46 -10 -71 0 -120 6 -34 9 -66 6 -71 -9
-15 -43 -3 -72 26 l-26 26 -19 -24 c-57 -75 -27 -218 66 -314 46 -48 93 -72
156 -82 l44 -7 -57 61 c-32 33 -62 72 -68 87 -10 25 -14 105 -6 105 2 0 27
-16 56 -35 29 -19 56 -32 61 -29 5 3 9 18 9 33 0 53 32 124 76 168 24 24 48
43 53 43 4 0 16 -30 25 -67 10 -38 24 -78 32 -90 17 -27 59 -30 92 -7 12 8 27
12 32 9 20 -12 11 -137 -14 -198 -13 -31 -19 -57 -14 -57 25 0 96 88 118 145
27 73 38 225 21 305 -13 59 -59 170 -71 170 -4 0 -13 -21 -19 -47 -34 -135
-80 -118 -101 37 -20 151 -97 253 -201 267 l-44 6 28 -32z"/>
</g>
</svg>
