<?xml version="1.0" standalone="no"?>
<!DOCTYPE svg PUBLIC "-//W3C//DTD SVG 20010904//EN"
 "http://www.w3.org/TR/2001/REC-SVG-20010904/DTD/svg10.dtd">
<svg version="1.0" xmlns="http://www.w3.org/2000/svg"
 width="90.000000pt" height="89.000000pt" viewBox="0 0 90.000000 89.000000"
 preserveAspectRatio="xMidYMid meet">

<g transform="translate(0.000000,89.000000) scale(0.100000,-0.100000)"
fill="#000000" stroke="none">
<path d="M362 657 c-127 -127 -232 -237 -232 -243 0 -10 105 -24 189 -24 65 0
65 0 21 -186 -41 -173 -46 -204 -32 -204 16 0 454 448 450 461 -3 10 -38 17
-116 25 -62 6 -115 14 -119 17 -3 4 15 89 41 189 49 194 50 198 38 198 -4 0
-112 -105 -240 -233z"/>
<path d="M364 860 c-110 -16 -220 -89 -283 -188 -71 -113 -81 -272 -24 -392
36 -77 95 -146 151 -178 62 -35 60 -9 -4 38 -148 110 -198 316 -116 482 58
119 163 192 302 211 84 12 90 14 70 27 -17 11 -23 11 -96 0z"/>
<path d="M660 785 c0 -7 7 -18 16 -23 39 -22 113 -106 140 -159 27 -54 29 -66
29 -168 0 -104 -2 -113 -31 -170 -60 -114 -178 -198 -297 -211 -31 -4 -60 -11
-63 -15 -10 -17 29 -22 86 -11 131 24 245 111 302 231 40 83 50 205 24 293
-21 74 -86 169 -145 213 -54 39 -61 41 -61 20z"/>
</g>
</svg>
